<mxfile host="app.diagrams.net" modified="2024-03-07T04:04:04.624Z" agent="Mozilla/5.0 (Windows NT 10.0; Win64; x64) AppleWebKit/537.36 (KHTML, like Gecko) Chrome/122.0.0.0 Safari/537.36" etag="xCuvr_XYagXkRSH35SXQ" version="24.0.2" type="google">
  <diagram name="Page-1" id="52a04d89-c75d-2922-d76d-85b35f80e030">
    <mxGraphModel dx="1793" dy="933" grid="1" gridSize="10" guides="1" tooltips="1" connect="1" arrows="1" fold="1" page="1" pageScale="1" pageWidth="1100" pageHeight="850" background="none" math="0" shadow="0">
      <root>
        <mxCell id="0" />
        <mxCell id="1" parent="0" />
        <mxCell id="21ea969265ad0168-30" value="User Accounts JSON File" style="html=1;rounded=0;shadow=0;comic=0;labelBackgroundColor=none;strokeWidth=2;fontFamily=Verdana;fontSize=12;align=center;shape=mxgraph.ios7ui.horLines;" parent="1" vertex="1">
          <mxGeometry x="500" y="240" width="160" height="50" as="geometry" />
        </mxCell>
        <mxCell id="17472293e6e8944d-4" value="User Stats JSON File" style="html=1;rounded=0;shadow=0;comic=0;labelBackgroundColor=none;strokeWidth=2;fontFamily=Verdana;fontSize=12;align=center;shape=mxgraph.ios7ui.horLines;" parent="1" vertex="1">
          <mxGeometry x="740" y="748" width="135" height="50" as="geometry" />
        </mxCell>
        <mxCell id="0LIrk5DDkLJ38fjckm6_-2" style="edgeStyle=none;html=1;labelBackgroundColor=none;startFill=0;startSize=8;endFill=1;endSize=8;fontFamily=Verdana;fontSize=12;exitX=0.5;exitY=0.987;exitDx=0;exitDy=0;exitPerimeter=0;entryX=0.5;entryY=0;entryDx=0;entryDy=0;" edge="1" parent="1" source="2eEwLOcv2DQhfr3W_t16-6" target="0LIrk5DDkLJ38fjckm6_-3">
          <mxGeometry relative="1" as="geometry">
            <mxPoint x="190" y="795.4100000000001" as="sourcePoint" />
            <mxPoint x="440" y="795.4100000000001" as="targetPoint" />
          </mxGeometry>
        </mxCell>
        <mxCell id="0LIrk5DDkLJ38fjckm6_-3" value="1.3" style="swimlane;html=1;fontStyle=0;childLayout=stackLayout;horizontal=1;startSize=26;fillColor=#e0e0e0;horizontalStack=0;resizeParent=1;resizeLast=0;collapsible=1;marginBottom=0;swimlaneFillColor=#ffffff;align=center;rounded=1;shadow=0;comic=0;labelBackgroundColor=none;strokeWidth=1;fontFamily=Verdana;fontSize=12" vertex="1" parent="1">
          <mxGeometry x="510" y="490" width="140" height="52" as="geometry" />
        </mxCell>
        <mxCell id="0LIrk5DDkLJ38fjckm6_-4" value="Start Game" style="text;html=1;strokeColor=none;fillColor=none;spacingLeft=4;spacingRight=4;whiteSpace=wrap;overflow=hidden;rotatable=0;points=[[0,0.5],[1,0.5]];portConstraint=eastwest;align=center;" vertex="1" parent="0LIrk5DDkLJ38fjckm6_-3">
          <mxGeometry y="26" width="140" height="26" as="geometry" />
        </mxCell>
        <mxCell id="0LIrk5DDkLJ38fjckm6_-5" value="Launch game" style="whiteSpace=wrap;html=1;rounded=0;shadow=0;comic=0;labelBackgroundColor=none;strokeWidth=1;fontFamily=Verdana;fontSize=12;align=center;" vertex="1" parent="1">
          <mxGeometry x="120" y="350" width="120" height="50" as="geometry" />
        </mxCell>
        <mxCell id="2eEwLOcv2DQhfr3W_t16-7" value="" style="edgeStyle=orthogonalEdgeStyle;rounded=0;orthogonalLoop=1;jettySize=auto;html=1;" edge="1" parent="1" source="0LIrk5DDkLJ38fjckm6_-7" target="2eEwLOcv2DQhfr3W_t16-5">
          <mxGeometry relative="1" as="geometry" />
        </mxCell>
        <mxCell id="0LIrk5DDkLJ38fjckm6_-7" value="1.0" style="swimlane;html=1;fontStyle=0;childLayout=stackLayout;horizontal=1;startSize=26;fillColor=#e0e0e0;horizontalStack=0;resizeParent=1;resizeLast=0;collapsible=1;marginBottom=0;swimlaneFillColor=#ffffff;align=center;rounded=1;shadow=0;comic=0;labelBackgroundColor=none;strokeWidth=1;fontFamily=Verdana;fontSize=12" vertex="1" parent="1">
          <mxGeometry x="311" y="350" width="140" height="52" as="geometry" />
        </mxCell>
        <mxCell id="0LIrk5DDkLJ38fjckm6_-8" value="Main Menu" style="text;html=1;strokeColor=none;fillColor=none;spacingLeft=4;spacingRight=4;whiteSpace=wrap;overflow=hidden;rotatable=0;points=[[0,0.5],[1,0.5]];portConstraint=eastwest;align=center;" vertex="1" parent="0LIrk5DDkLJ38fjckm6_-7">
          <mxGeometry y="26" width="140" height="26" as="geometry" />
        </mxCell>
        <mxCell id="0LIrk5DDkLJ38fjckm6_-10" style="edgeStyle=orthogonalEdgeStyle;rounded=0;orthogonalLoop=1;jettySize=auto;html=1;exitX=1;exitY=0.5;exitDx=0;exitDy=0;entryX=-0.017;entryY=0.481;entryDx=0;entryDy=0;entryPerimeter=0;" edge="1" parent="1" source="0LIrk5DDkLJ38fjckm6_-5" target="0LIrk5DDkLJ38fjckm6_-7">
          <mxGeometry relative="1" as="geometry" />
        </mxCell>
        <mxCell id="2eEwLOcv2DQhfr3W_t16-12" value="" style="edgeStyle=orthogonalEdgeStyle;rounded=0;orthogonalLoop=1;jettySize=auto;html=1;" edge="1" parent="1" source="2eEwLOcv2DQhfr3W_t16-5" target="2eEwLOcv2DQhfr3W_t16-11">
          <mxGeometry relative="1" as="geometry" />
        </mxCell>
        <mxCell id="2eEwLOcv2DQhfr3W_t16-5" value="1.1" style="swimlane;html=1;fontStyle=0;childLayout=stackLayout;horizontal=1;startSize=26;fillColor=#e0e0e0;horizontalStack=0;resizeParent=1;resizeLast=0;collapsible=1;marginBottom=0;swimlaneFillColor=#ffffff;align=center;rounded=1;shadow=0;comic=0;labelBackgroundColor=none;strokeWidth=1;fontFamily=Verdana;fontSize=12" vertex="1" parent="1">
          <mxGeometry x="510" y="350" width="140" height="52" as="geometry" />
        </mxCell>
        <mxCell id="2eEwLOcv2DQhfr3W_t16-6" value="Pick Account" style="text;html=1;strokeColor=none;fillColor=none;spacingLeft=4;spacingRight=4;whiteSpace=wrap;overflow=hidden;rotatable=0;points=[[0,0.5],[1,0.5]];portConstraint=eastwest;align=center;" vertex="1" parent="2eEwLOcv2DQhfr3W_t16-5">
          <mxGeometry y="26" width="140" height="26" as="geometry" />
        </mxCell>
        <mxCell id="0LIrk5DDkLJ38fjckm6_-11" style="edgeStyle=orthogonalEdgeStyle;rounded=0;orthogonalLoop=1;jettySize=auto;html=1;exitX=0.5;exitY=0;exitDx=0;exitDy=0;entryX=0.5;entryY=1;entryDx=0;entryDy=0;entryPerimeter=0;" edge="1" parent="1" source="2eEwLOcv2DQhfr3W_t16-5" target="21ea969265ad0168-30">
          <mxGeometry relative="1" as="geometry" />
        </mxCell>
        <mxCell id="2eEwLOcv2DQhfr3W_t16-18" style="edgeStyle=orthogonalEdgeStyle;rounded=0;orthogonalLoop=1;jettySize=auto;html=1;exitX=1;exitY=0.5;exitDx=0;exitDy=0;entryX=0;entryY=0.5;entryDx=0;entryDy=0;" edge="1" parent="1" source="2eEwLOcv2DQhfr3W_t16-11" target="2eEwLOcv2DQhfr3W_t16-16">
          <mxGeometry relative="1" as="geometry" />
        </mxCell>
        <mxCell id="2eEwLOcv2DQhfr3W_t16-11" value="Create account if doesn&#39;t exist/else proceed" style="ellipse;whiteSpace=wrap;html=1;fontFamily=Verdana;fillColor=#e0e0e0;fontStyle=0;startSize=26;swimlaneFillColor=#ffffff;rounded=1;shadow=0;comic=0;labelBackgroundColor=none;strokeWidth=1;" vertex="1" parent="1">
          <mxGeometry x="770" y="329" width="100" height="94" as="geometry" />
        </mxCell>
        <mxCell id="2eEwLOcv2DQhfr3W_t16-13" style="edgeStyle=orthogonalEdgeStyle;rounded=0;orthogonalLoop=1;jettySize=auto;html=1;exitX=0.5;exitY=0;exitDx=0;exitDy=0;" edge="1" parent="1" source="2eEwLOcv2DQhfr3W_t16-11" target="21ea969265ad0168-30">
          <mxGeometry relative="1" as="geometry">
            <Array as="points">
              <mxPoint x="820" y="265" />
            </Array>
          </mxGeometry>
        </mxCell>
        <mxCell id="2eEwLOcv2DQhfr3W_t16-16" value="1.2" style="swimlane;html=1;fontStyle=0;childLayout=stackLayout;horizontal=1;startSize=26;fillColor=#e0e0e0;horizontalStack=0;resizeParent=1;resizeLast=0;collapsible=1;marginBottom=0;swimlaneFillColor=#ffffff;align=center;rounded=1;shadow=0;comic=0;labelBackgroundColor=none;strokeWidth=1;fontFamily=Verdana;fontSize=12" vertex="1" parent="1">
          <mxGeometry x="930" y="350" width="140" height="52" as="geometry" />
        </mxCell>
        <mxCell id="2eEwLOcv2DQhfr3W_t16-17" value="Create deck" style="text;html=1;strokeColor=none;fillColor=none;spacingLeft=4;spacingRight=4;whiteSpace=wrap;overflow=hidden;rotatable=0;points=[[0,0.5],[1,0.5]];portConstraint=eastwest;align=center;" vertex="1" parent="2eEwLOcv2DQhfr3W_t16-16">
          <mxGeometry y="26" width="140" height="26" as="geometry" />
        </mxCell>
        <mxCell id="2eEwLOcv2DQhfr3W_t16-19" value="1.4" style="swimlane;html=1;fontStyle=0;childLayout=stackLayout;horizontal=1;startSize=26;fillColor=#e0e0e0;horizontalStack=0;resizeParent=1;resizeLast=0;collapsible=1;marginBottom=0;swimlaneFillColor=#ffffff;align=center;rounded=1;shadow=0;comic=0;labelBackgroundColor=none;strokeWidth=1;fontFamily=Verdana;fontSize=12" vertex="1" parent="1">
          <mxGeometry x="311" y="491" width="140" height="50" as="geometry" />
        </mxCell>
        <mxCell id="2eEwLOcv2DQhfr3W_t16-20" value="Load players&amp;nbsp;" style="text;html=1;strokeColor=none;fillColor=none;spacingLeft=4;spacingRight=4;whiteSpace=wrap;overflow=hidden;rotatable=0;points=[[0,0.5],[1,0.5]];portConstraint=eastwest;align=center;" vertex="1" parent="2eEwLOcv2DQhfr3W_t16-19">
          <mxGeometry y="26" width="140" height="24" as="geometry" />
        </mxCell>
        <mxCell id="FqzAYyhbK7FA-7tYmuK5-11" style="edgeStyle=orthogonalEdgeStyle;rounded=0;orthogonalLoop=1;jettySize=auto;html=1;entryX=0;entryY=0.5;entryDx=0;entryDy=0;" edge="1" parent="1" source="2eEwLOcv2DQhfr3W_t16-22" target="2eEwLOcv2DQhfr3W_t16-30">
          <mxGeometry relative="1" as="geometry">
            <Array as="points">
              <mxPoint x="190" y="657" />
            </Array>
          </mxGeometry>
        </mxCell>
        <mxCell id="2eEwLOcv2DQhfr3W_t16-22" value="1.5" style="swimlane;html=1;fontStyle=0;childLayout=stackLayout;horizontal=1;startSize=26;fillColor=#e0e0e0;horizontalStack=0;resizeParent=1;resizeLast=0;collapsible=1;marginBottom=0;swimlaneFillColor=#ffffff;align=center;rounded=1;shadow=0;comic=0;labelBackgroundColor=none;strokeWidth=1;fontFamily=Verdana;fontSize=12" vertex="1" parent="1">
          <mxGeometry x="111" y="491" width="140" height="50" as="geometry" />
        </mxCell>
        <mxCell id="2eEwLOcv2DQhfr3W_t16-23" value="Begin Timer" style="text;html=1;strokeColor=none;fillColor=none;spacingLeft=4;spacingRight=4;whiteSpace=wrap;overflow=hidden;rotatable=0;points=[[0,0.5],[1,0.5]];portConstraint=eastwest;align=center;" vertex="1" parent="2eEwLOcv2DQhfr3W_t16-22">
          <mxGeometry y="26" width="140" height="24" as="geometry" />
        </mxCell>
        <mxCell id="2eEwLOcv2DQhfr3W_t16-26" style="edgeStyle=orthogonalEdgeStyle;rounded=0;orthogonalLoop=1;jettySize=auto;html=1;exitX=0;exitY=0.5;exitDx=0;exitDy=0;entryX=1;entryY=0.5;entryDx=0;entryDy=0;" edge="1" parent="1" source="2eEwLOcv2DQhfr3W_t16-20" target="2eEwLOcv2DQhfr3W_t16-23">
          <mxGeometry relative="1" as="geometry" />
        </mxCell>
        <mxCell id="2eEwLOcv2DQhfr3W_t16-32" style="edgeStyle=orthogonalEdgeStyle;rounded=0;orthogonalLoop=1;jettySize=auto;html=1;entryX=0;entryY=0.5;entryDx=0;entryDy=0;" edge="1" parent="1" source="2eEwLOcv2DQhfr3W_t16-28" target="2eEwLOcv2DQhfr3W_t16-34">
          <mxGeometry relative="1" as="geometry">
            <mxPoint x="740" y="677" as="targetPoint" />
          </mxGeometry>
        </mxCell>
        <mxCell id="2eEwLOcv2DQhfr3W_t16-37" value="" style="edgeStyle=orthogonalEdgeStyle;rounded=0;orthogonalLoop=1;jettySize=auto;html=1;entryX=0.5;entryY=0;entryDx=0;entryDy=0;" edge="1" parent="1" source="2eEwLOcv2DQhfr3W_t16-28" target="2eEwLOcv2DQhfr3W_t16-35">
          <mxGeometry relative="1" as="geometry" />
        </mxCell>
        <mxCell id="2eEwLOcv2DQhfr3W_t16-28" value="Check Tower status when timer hits 0/or if tower gets destoryed" style="ellipse;whiteSpace=wrap;html=1;fontFamily=Verdana;fillColor=#e0e0e0;fontStyle=0;startSize=26;swimlaneFillColor=#ffffff;rounded=1;shadow=0;comic=0;labelBackgroundColor=none;strokeWidth=1;" vertex="1" parent="1">
          <mxGeometry x="530" y="608" width="100" height="94" as="geometry" />
        </mxCell>
        <mxCell id="2eEwLOcv2DQhfr3W_t16-29" value="1.6" style="swimlane;html=1;fontStyle=0;childLayout=stackLayout;horizontal=1;startSize=26;fillColor=#e0e0e0;horizontalStack=0;resizeParent=1;resizeLast=0;collapsible=1;marginBottom=0;swimlaneFillColor=#ffffff;align=center;rounded=1;shadow=0;comic=0;labelBackgroundColor=none;strokeWidth=1;fontFamily=Verdana;fontSize=12" vertex="1" parent="1">
          <mxGeometry x="310" y="619" width="140" height="50" as="geometry" />
        </mxCell>
        <mxCell id="2eEwLOcv2DQhfr3W_t16-30" value="Game Loop (R1)" style="text;html=1;strokeColor=none;fillColor=none;spacingLeft=4;spacingRight=4;whiteSpace=wrap;overflow=hidden;rotatable=0;points=[[0,0.5],[1,0.5]];portConstraint=eastwest;align=center;" vertex="1" parent="2eEwLOcv2DQhfr3W_t16-29">
          <mxGeometry y="26" width="140" height="24" as="geometry" />
        </mxCell>
        <mxCell id="0LIrk5DDkLJ38fjckm6_-19" style="edgeStyle=orthogonalEdgeStyle;rounded=0;orthogonalLoop=1;jettySize=auto;html=1;exitX=0.5;exitY=0;exitDx=0;exitDy=0;entryX=0.5;entryY=0;entryDx=0;entryDy=0;" edge="1" parent="1" source="2eEwLOcv2DQhfr3W_t16-33" target="2eEwLOcv2DQhfr3W_t16-28">
          <mxGeometry relative="1" as="geometry">
            <Array as="points">
              <mxPoint x="810" y="580" />
              <mxPoint x="580" y="580" />
            </Array>
          </mxGeometry>
        </mxCell>
        <mxCell id="2eEwLOcv2DQhfr3W_t16-33" value="1.7" style="swimlane;html=1;fontStyle=0;childLayout=stackLayout;horizontal=1;startSize=26;fillColor=#e0e0e0;horizontalStack=0;resizeParent=1;resizeLast=0;collapsible=1;marginBottom=0;swimlaneFillColor=#ffffff;align=center;rounded=1;shadow=0;comic=0;labelBackgroundColor=none;strokeWidth=1;fontFamily=Verdana;fontSize=12" vertex="1" parent="1">
          <mxGeometry x="735" y="617" width="140" height="50" as="geometry" />
        </mxCell>
        <mxCell id="2eEwLOcv2DQhfr3W_t16-34" value="Run Overtime" style="text;html=1;strokeColor=none;fillColor=none;spacingLeft=4;spacingRight=4;whiteSpace=wrap;overflow=hidden;rotatable=0;points=[[0,0.5],[1,0.5]];portConstraint=eastwest;align=center;" vertex="1" parent="2eEwLOcv2DQhfr3W_t16-33">
          <mxGeometry y="26" width="140" height="24" as="geometry" />
        </mxCell>
        <mxCell id="2eEwLOcv2DQhfr3W_t16-35" value="1.8" style="swimlane;html=1;fontStyle=0;childLayout=stackLayout;horizontal=1;startSize=26;fillColor=#e0e0e0;horizontalStack=0;resizeParent=1;resizeLast=0;collapsible=1;marginBottom=0;swimlaneFillColor=#ffffff;align=center;rounded=1;shadow=0;comic=0;labelBackgroundColor=none;strokeWidth=1;fontFamily=Verdana;fontSize=12" vertex="1" parent="1">
          <mxGeometry x="510" y="737" width="140" height="70" as="geometry" />
        </mxCell>
        <mxCell id="2eEwLOcv2DQhfr3W_t16-36" value="Declare winner and update stats" style="text;html=1;strokeColor=none;fillColor=none;spacingLeft=4;spacingRight=4;whiteSpace=wrap;overflow=hidden;rotatable=0;points=[[0,0.5],[1,0.5]];portConstraint=eastwest;align=center;" vertex="1" parent="2eEwLOcv2DQhfr3W_t16-35">
          <mxGeometry y="26" width="140" height="44" as="geometry" />
        </mxCell>
        <mxCell id="0LIrk5DDkLJ38fjckm6_-20" style="edgeStyle=orthogonalEdgeStyle;rounded=0;orthogonalLoop=1;jettySize=auto;html=1;exitX=1.011;exitY=0.221;exitDx=0;exitDy=0;exitPerimeter=0;" edge="1" parent="1" source="2eEwLOcv2DQhfr3W_t16-36" target="17472293e6e8944d-4">
          <mxGeometry relative="1" as="geometry" />
        </mxCell>
        <mxCell id="2eEwLOcv2DQhfr3W_t16-38" value="&lt;div&gt;&lt;font face=&quot;Arial, sans-serif&quot;&gt;&lt;span style=&quot;font-size: 16px; white-space-collapse: preserve;&quot;&gt;GAME LOOP (R1)&lt;/span&gt;&lt;/font&gt;&lt;/div&gt;&lt;ul style=&quot;margin-top: 0px; margin-bottom: 0px; padding-inline-start: 48px;&quot;&gt;&lt;li style=&quot;list-style-type: disc; font-size: 12pt; font-family: Arial, sans-serif; background-color: transparent; font-variant-numeric: normal; font-variant-east-asian: normal; font-variant-alternates: normal; font-variant-position: normal; vertical-align: baseline; white-space: pre;&quot; aria-level=&quot;1&quot; dir=&quot;ltr&quot;&gt;&lt;p style=&quot;line-height: 1.38; margin-top: 0pt; margin-bottom: 0pt;&quot; role=&quot;presentation&quot; dir=&quot;ltr&quot;&gt;&lt;span style=&quot;font-size: 12pt; background-color: transparent; font-variant-numeric: normal; font-variant-east-asian: normal; font-variant-alternates: normal; font-variant-position: normal; vertical-align: baseline; text-wrap: wrap;&quot;&gt;Players place cards, consuming their elixir.&lt;/span&gt;&lt;/p&gt;&lt;/li&gt;&lt;li style=&quot;list-style-type: disc; font-size: 12pt; font-family: Arial, sans-serif; background-color: transparent; font-variant-numeric: normal; font-variant-east-asian: normal; font-variant-alternates: normal; font-variant-position: normal; vertical-align: baseline; white-space: pre;&quot; aria-level=&quot;1&quot; dir=&quot;ltr&quot;&gt;&lt;p style=&quot;line-height: 1.38; margin-top: 0pt; margin-bottom: 0pt;&quot; role=&quot;presentation&quot; dir=&quot;ltr&quot;&gt;&lt;span style=&quot;font-size: 12pt; background-color: transparent; font-variant-numeric: normal; font-variant-east-asian: normal; font-variant-alternates: normal; font-variant-position: normal; vertical-align: baseline; text-wrap: wrap;&quot;&gt;The next card in rotation will show when a card is played. 4 cards must always be visible to the player.&lt;/span&gt;&lt;/p&gt;&lt;/li&gt;&lt;li style=&quot;list-style-type: disc; font-size: 12pt; font-family: Arial, sans-serif; background-color: transparent; font-variant-numeric: normal; font-variant-east-asian: normal; font-variant-alternates: normal; font-variant-position: normal; vertical-align: baseline; white-space: pre;&quot; aria-level=&quot;1&quot; dir=&quot;ltr&quot;&gt;&lt;p style=&quot;line-height: 1.38; margin-top: 0pt; margin-bottom: 0pt;&quot; role=&quot;presentation&quot; dir=&quot;ltr&quot;&gt;&lt;span style=&quot;font-size: 12pt; background-color: transparent; font-variant-numeric: normal; font-variant-east-asian: normal; font-variant-alternates: normal; font-variant-position: normal; vertical-align: baseline; text-wrap: wrap;&quot;&gt;Cards attack each other or towers until one player has destroyed the other main tower&lt;/span&gt;&lt;/p&gt;&lt;/li&gt;&lt;/ul&gt;" style="rounded=0;whiteSpace=wrap;html=1;" vertex="1" parent="1">
          <mxGeometry x="30" y="59" width="490" height="140" as="geometry" />
        </mxCell>
        <mxCell id="FqzAYyhbK7FA-7tYmuK5-15" style="edgeStyle=orthogonalEdgeStyle;rounded=0;orthogonalLoop=1;jettySize=auto;html=1;entryX=1;entryY=0.5;entryDx=0;entryDy=0;" edge="1" parent="1" source="2eEwLOcv2DQhfr3W_t16-17" target="0LIrk5DDkLJ38fjckm6_-4">
          <mxGeometry relative="1" as="geometry">
            <mxPoint x="652" y="520" as="targetPoint" />
            <Array as="points">
              <mxPoint x="1000" y="529" />
            </Array>
          </mxGeometry>
        </mxCell>
        <mxCell id="FqzAYyhbK7FA-7tYmuK5-16" style="edgeStyle=orthogonalEdgeStyle;rounded=0;orthogonalLoop=1;jettySize=auto;html=1;entryX=1;entryY=0.5;entryDx=0;entryDy=0;" edge="1" parent="1" source="0LIrk5DDkLJ38fjckm6_-4" target="2eEwLOcv2DQhfr3W_t16-20">
          <mxGeometry relative="1" as="geometry" />
        </mxCell>
        <mxCell id="FqzAYyhbK7FA-7tYmuK5-17" style="edgeStyle=orthogonalEdgeStyle;rounded=0;orthogonalLoop=1;jettySize=auto;html=1;entryX=0;entryY=0.5;entryDx=0;entryDy=0;" edge="1" parent="1" source="2eEwLOcv2DQhfr3W_t16-30" target="2eEwLOcv2DQhfr3W_t16-28">
          <mxGeometry relative="1" as="geometry">
            <Array as="points">
              <mxPoint x="470" y="655" />
              <mxPoint x="470" y="655" />
            </Array>
          </mxGeometry>
        </mxCell>
        <mxCell id="0LIrk5DDkLJ38fjckm6_-21" value="Amar Trivedi&lt;div&gt;Jake Holmes&lt;/div&gt;&lt;div&gt;Christopher Gugelmeier&lt;/div&gt;&lt;div&gt;Subhan Mirpour&lt;/div&gt;" style="rounded=0;whiteSpace=wrap;html=1;" vertex="1" parent="1">
          <mxGeometry x="735" y="60" width="135" height="60" as="geometry" />
        </mxCell>
      </root>
    </mxGraphModel>
  </diagram>
</mxfile>
